<svg xmlns="http://www.w3.org/2000/svg" xmlns:xlink="http://www.w3.org/1999/xlink" version="1.1" width="256" height="256" viewBox="0 0 256 256" xml:space="preserve">
<desc>Created with Fabric.js 1.7.22</desc>
<defs>
</defs>
<g transform="translate(128 128) scale(0.72 0.72)" style="">
	<g style="stroke: none; stroke-width: 0; stroke-dasharray: none; stroke-linecap: butt; stroke-linejoin: miter; stroke-miterlimit: 10; fill: none; fill-rule: nonzero; opacity: 1;" transform="translate(-175.05 -175.05000000000004) scale(3.89 3.89)" >
	<path d="M 45 54.014 c -0.226 0 -0.452 -0.076 -0.639 -0.231 L 4.304 20.485 c -2.598 -2.16 -2.955 -6.031 -0.795 -8.63 c 0.354 -0.423 0.983 -0.483 1.408 -0.13 c 0.425 0.353 0.483 0.983 0.13 1.408 c -1.455 1.75 -1.214 4.358 0.536 5.813 l 40.057 33.298 c 0.424 0.353 0.483 0.983 0.13 1.408 C 45.571 53.891 45.287 54.014 45 54.014 z" style="stroke: none; stroke-width: 1; stroke-dasharray: none; stroke-linecap: butt; stroke-linejoin: miter; stroke-miterlimit: 10; fill: rgb(0,0,0); fill-rule: nonzero; opacity: 1;" transform=" matrix(1 0 0 1 0 0) " stroke-linecap="round" />
	<path d="M 85.045 85.771 c -1.426 0 -2.795 -0.493 -3.906 -1.417 L 47.68 56.541 c -0.424 -0.353 -0.482 -0.983 -0.129 -1.408 c 0.352 -0.423 0.981 -0.482 1.408 -0.129 l 33.459 27.813 c 0.848 0.704 1.923 1.037 3.017 0.936 c 0.759 -0.069 1.467 -0.341 2.064 -0.78 l -39.819 -33.1 c -0.424 -0.353 -0.482 -0.983 -0.129 -1.408 c 0.352 -0.422 0.981 -0.482 1.408 -0.129 L 89.64 82.151 c 0.424 0.353 0.482 0.983 0.13 1.407 c -1.047 1.26 -2.521 2.036 -4.15 2.187 C 85.427 85.763 85.235 85.771 85.045 85.771 z" style="stroke: none; stroke-width: 1; stroke-dasharray: none; stroke-linecap: butt; stroke-linejoin: miter; stroke-miterlimit: 10; fill: rgb(0,0,0); fill-rule: nonzero; opacity: 1;" transform=" matrix(1 0 0 1 0 0) " stroke-linecap="round" />
	<path d="M 4.955 85.771 c -0.19 0 -0.382 -0.009 -0.574 -0.026 c -1.63 -0.15 -3.104 -0.927 -4.15 -2.187 c -0.353 -0.424 -0.295 -1.055 0.13 -1.407 l 39.989 -33.24 c 0.425 -0.353 1.056 -0.294 1.408 0.129 c 0.353 0.425 0.295 1.056 -0.13 1.408 L 2.501 82.973 c 0.598 0.439 1.305 0.711 2.063 0.78 c 1.098 0.101 2.169 -0.23 3.017 -0.936 l 36.779 -30.572 c 0.425 -0.353 1.056 -0.295 1.408 0.129 c 0.353 0.425 0.294 1.056 -0.13 1.408 L 8.86 84.354 C 7.75 85.278 6.381 85.771 4.955 85.771 z" style="stroke: none; stroke-width: 1; stroke-dasharray: none; stroke-linecap: butt; stroke-linejoin: miter; stroke-miterlimit: 10; fill: rgb(0,0,0); fill-rule: nonzero; opacity: 1;" transform=" matrix(1 0 0 1 0 0) " stroke-linecap="round" />
	<path d="M 49.012 50.68 c -0.287 0 -0.572 -0.123 -0.77 -0.36 c -0.354 -0.425 -0.295 -1.056 0.129 -1.408 l 36.046 -29.964 c 1.485 -1.235 1.884 -3.299 1.081 -4.966 L 48.911 44.395 c -0.428 0.353 -1.057 0.293 -1.408 -0.13 c -0.354 -0.425 -0.295 -1.055 0.129 -1.408 l 37.45 -31.131 c 0.204 -0.169 0.47 -0.253 0.731 -0.227 c 0.264 0.024 0.508 0.152 0.677 0.356 c 2.16 2.599 1.804 6.47 -0.794 8.63 L 49.65 50.448 C 49.463 50.604 49.236 50.68 49.012 50.68 z" style="stroke: none; stroke-width: 1; stroke-dasharray: none; stroke-linecap: butt; stroke-linejoin: miter; stroke-miterlimit: 10; fill: rgb(0,0,0); fill-rule: nonzero; opacity: 1;" transform=" matrix(1 0 0 1 0 0) " stroke-linecap="round" />
	<path d="M 45.066 40.72 c -0.226 0 -0.452 -0.076 -0.639 -0.231 L 6.323 8.815 C 5.898 8.462 5.84 7.832 6.193 7.407 l 1.346 -1.62 c 1.303 -1.567 3.494 -2.01 5.321 -1.077 c 0.036 0.018 0.071 0.039 0.104 0.061 c 6.934 4.668 13.422 7.4 18.636 9.595 c 6.377 2.685 11.41 4.803 13.463 9.018 c 0.592 -1.218 1.453 -2.306 2.599 -3.303 c 2.545 -2.211 6.219 -3.758 10.869 -5.716 c 5.214 -2.195 11.702 -4.926 18.636 -9.595 c 0.033 -0.022 0.068 -0.043 0.104 -0.061 c 1.828 -0.933 4.018 -0.49 5.32 1.077 l 1.347 1.62 c 0.353 0.425 0.294 1.055 -0.13 1.408 l -34.851 28.97 c -0.428 0.353 -1.058 0.293 -1.408 -0.13 c -0.354 -0.425 -0.295 -1.055 0.129 -1.408 L 81.762 7.916 l -0.707 -0.851 c -0.689 -0.829 -1.845 -1.07 -2.824 -0.599 c -7.074 4.754 -13.643 7.52 -18.922 9.742 c -4.486 1.889 -8.029 3.38 -10.333 5.382 c -2.012 1.748 -2.909 3.758 -2.909 6.517 c 0 0.552 -0.448 1 -1 1 s -1 -0.448 -1 -1 c 0 -6.324 -4.984 -8.423 -13.241 -11.899 c -5.28 -2.223 -11.848 -4.988 -18.923 -9.743 c -0.981 -0.472 -2.136 -0.23 -2.825 0.599 L 8.371 7.916 l 37.335 31.035 c 0.424 0.353 0.483 0.983 0.13 1.408 C 45.638 40.597 45.353 40.72 45.066 40.72 z" style="stroke: none; stroke-width: 1; stroke-dasharray: none; stroke-linecap: butt; stroke-linejoin: miter; stroke-miterlimit: 10; fill: rgb(0,0,0); fill-rule: nonzero; opacity: 1;" transform=" matrix(1 0 0 1 0 0) " stroke-linecap="round" />
	<path d="M 48.32 44.684 c -0.287 0 -0.572 -0.123 -0.77 -0.361 c -0.354 -0.425 -0.295 -1.055 0.129 -1.408 l 38.775 -32.232 c 0.663 -0.551 0.754 -1.539 0.203 -2.203 c -0.267 -0.321 -0.643 -0.519 -1.059 -0.558 c -0.43 -0.04 -0.823 0.088 -1.144 0.355 L 48.959 37.785 c -0.428 0.353 -1.058 0.293 -1.408 -0.13 c -0.354 -0.425 -0.295 -1.055 0.129 -1.408 L 83.177 6.739 c 0.732 -0.608 1.654 -0.896 2.605 -0.808 c 0.948 0.087 1.806 0.539 2.415 1.271 c 1.255 1.512 1.047 3.763 -0.463 5.019 L 48.959 44.453 C 48.771 44.608 48.545 44.684 48.32 44.684 z" style="stroke: none; stroke-width: 1; stroke-dasharray: none; stroke-linecap: butt; stroke-linejoin: miter; stroke-miterlimit: 10; fill: rgb(0,0,0); fill-rule: nonzero; opacity: 1;" transform=" matrix(1 0 0 1 0 0) " stroke-linecap="round" />
	<path d="M 45.066 47.388 c -0.226 0 -0.452 -0.076 -0.639 -0.231 L 2.399 12.221 C 0.888 10.964 0.68 8.713 1.936 7.202 C 2.544 6.47 3.402 6.019 4.35 5.931 c 0.954 -0.086 1.874 0.2 2.605 0.808 l 38.75 32.211 c 0.424 0.353 0.483 0.983 0.13 1.408 c -0.353 0.424 -0.984 0.483 -1.408 0.13 L 5.677 8.277 C 5.355 8.01 4.946 7.885 4.534 7.922 C 4.118 7.961 3.741 8.159 3.474 8.48 c -0.551 0.663 -0.46 1.651 0.203 2.202 l 42.028 34.936 c 0.424 0.353 0.483 0.984 0.13 1.409 C 45.638 47.265 45.353 47.388 45.066 47.388 z" style="stroke: none; stroke-width: 1; stroke-dasharray: none; stroke-linecap: butt; stroke-linejoin: miter; stroke-miterlimit: 10; fill: rgb(0,0,0); fill-rule: nonzero; opacity: 1;" transform=" matrix(1 0 0 1 0 0) " stroke-linecap="round" />
	<path d="M 48.319 64.893 c -0.393 0 -0.758 -0.231 -0.918 -0.604 c -0.367 -0.851 -0.644 -1.185 -0.773 -1.308 c -0.13 0.123 -0.406 0.457 -0.773 1.308 c -0.189 0.437 -0.662 0.681 -1.123 0.582 c -0.465 -0.097 -0.798 -0.507 -0.796 -0.982 l 0.13 -35.784 c 0.001 -3.342 1.144 -5.892 3.597 -8.023 c 0.297 -0.257 0.715 -0.316 1.071 -0.155 c 0.356 0.162 0.585 0.518 0.585 0.91 v 43.056 c 0 0.475 -0.333 0.884 -0.798 0.979 C 48.454 64.886 48.386 64.893 48.319 64.893 z M 46.711 62.917 L 46.711 62.917 L 46.711 62.917 z M 46.545 62.917 L 46.545 62.917 L 46.545 62.917 z M 46.628 60.931 c 0.249 0 0.479 0.051 0.691 0.139 V 23.456 c -0.856 1.315 -1.253 2.818 -1.253 4.652 c 0 0.001 0 0.002 0 0.003 l -0.12 32.954 C 46.156 60.979 46.383 60.931 46.628 60.931 z M 45.066 28.108 h 0.01 H 45.066 z" style="stroke: none; stroke-width: 1; stroke-dasharray: none; stroke-linecap: butt; stroke-linejoin: miter; stroke-miterlimit: 10; fill: rgb(0,0,0); fill-rule: nonzero; opacity: 1;" transform=" matrix(1 0 0 1 0 0) " stroke-linecap="round" />
</g>
</g>
</svg>