<?xml version="1.0" encoding="utf-8"?>
<!-- Generator: Adobe Illustrator 17.0.0, SVG Export Plug-In . SVG Version: 6.00 Build 0)  -->
<!DOCTYPE svg>
<svg version="1.1" id="Layer_1" xmlns="http://www.w3.org/2000/svg" xmlns:xlink="http://www.w3.org/1999/xlink" x="0px" y="0px"
	 width="100px" height="100px" viewBox="0 0 100 100" enable-background="new 0 0 100 100"
	 xml:space="preserve">

<path opacity=".75" fill="#7367F0" d="M90.39,52.75C89.4,73.64,72.65,90.39,51.76,91.38v-4.76c18.27-0.97,32.9-15.6,33.87-33.87H90.39z">
	<animateTransform attributeName="transform"
                  attributeType="XML"
                  type="rotate"
                  from="0 50 50"
                  to="360 50 50"
                  dur="3s"
                  repeatCount="indefinite"/>
</path>
<path opacity=".75" fill="#B4B7BD" d="M47.87,10.24V15c-18.26,0.97-32.89,15.6-33.86,33.86H9.25C10.24,27.98,26.99,11.23,47.87,10.24z">
	<animateTransform attributeName="transform"
                  attributeType="XML"
                  type="rotate"
                  from="0 50 50"
                  to="360 50 50"
                  dur="2s"
                  repeatCount="indefinite"/>
</path>

<path fill="#fff" d="M80.69,52.75C79.73,68.29,67.3,80.72,51.76,81.68v-4.47c13.07-0.94,23.52-11.38,24.46-24.46H80.69z">
	<animateTransform attributeName="transform"
                  attributeType="XML"
                  type="rotate"
                  from="0 50 50"
                  to="360 50 50"
                  dur="3s"
                  repeatCount="indefinite"/>
</path>

<path opacity=".75" fill="#ffffff" d="M47.87,19.94v4.47c-13.08,0.94-23.52,11.37-24.46,24.45h-4.46C19.92,33.33,32.34,20.91,47.87,19.94z">
	<animateTransform attributeName="transform"
                  attributeType="XML"
                  type="rotate"
                  from="0 50 50"
                  to="360 50 50"
                  dur="1s"
                  repeatCount="indefinite"/>
</path>
</svg>
